<svg width="1280" height="360" viewBox="0 0 1280 360" fill="none" xmlns="http://www.w3.org/2000/svg">
  <defs>
    <linearGradient id="iconBg" x1="50" y1="38" x2="314" y2="326" gradientUnits="userSpaceOnUse">
      <stop offset="0" stop-color="#111827"/>
      <stop offset="0.55" stop-color="#0F172A"/>
      <stop offset="1" stop-color="#020617"/>
    </linearGradient>
    <linearGradient id="accent" x1="81" y1="95" x2="287" y2="255" gradientUnits="userSpaceOnUse">
      <stop offset="0" stop-color="#67E8F9"/>
      <stop offset="0.52" stop-color="#38BDF8"/>
      <stop offset="1" stop-color="#22C55E"/>
    </linearGradient>
  </defs>
  <rect width="1280" height="360" rx="0" fill="#020617"/>
  <rect x="50" y="50" width="260" height="260" rx="58" fill="url(#iconBg)" stroke="#1E293B" stroke-width="1.5"/>
  <path d="M86 112H274" stroke="#334155" stroke-width="1.8" stroke-linecap="round" opacity="0.6"/>
  <circle cx="103" cy="92" r="5" fill="#22D3EE" opacity="0.85"/>
  <circle cx="121" cy="92" r="5" fill="#38BDF8" opacity="0.65"/>
  <circle cx="139" cy="92" r="5" fill="#22C55E" opacity="0.65"/>
  <path d="M86 235H119M241 235H274M119 235V264M241 235V264M119 264H149M211 264H241" stroke="#38BDF8" stroke-width="5" stroke-linecap="round" opacity="0.7"/>
  <circle cx="119" cy="264" r="7" fill="#0F172A" stroke="#67E8F9" stroke-width="4"/>
  <circle cx="241" cy="264" r="7" fill="#0F172A" stroke="#67E8F9" stroke-width="4"/>
  <text x="180" y="213" text-anchor="middle" font-family="Inter, Noto Sans, Arial, sans-serif" font-weight="800" font-size="90" letter-spacing="-5.5" fill="url(#accent)">NE</text>
  <path d="M89 144L105 159L89 174" stroke="#E2E8F0" stroke-width="9" stroke-linecap="round" stroke-linejoin="round" opacity="0.92"/>
  <path d="M202 235H241" stroke="#E2E8F0" stroke-width="7.5" stroke-linecap="round" opacity="0.9"/>
  <path d="M252 235H267" stroke="#22C55E" stroke-width="7.5" stroke-linecap="round" opacity="0.95"/>
  <text x="360" y="165" font-family="Inter, Noto Sans, Arial, sans-serif" font-weight="800" font-size="86" letter-spacing="-4" fill="#F8FAFC">NE Admin</text>
  <rect x="365" y="190" width="384" height="6" rx="3" fill="url(#accent)" opacity="0.92"/>
  <text x="360" y="244" font-family="Inter, Noto Sans, Arial, sans-serif" font-weight="500" font-size="32" letter-spacing="0.2" fill="#CBD5E1">заметки инфраструктурщика</text>
  <text x="360" y="286" font-family="Inter, Noto Sans, Arial, sans-serif" font-weight="600" font-size="24" letter-spacing="2.5" fill="#94A3B8">NETWORK · SECURITY · MAIL · LINUX · AI</text>
</svg>
