<svg width="512" height="512" viewBox="0 0 512 512" fill="none" xmlns="http://www.w3.org/2000/svg">
  <defs>
    <linearGradient id="bg" x1="76" y1="56" x2="456" y2="478" gradientUnits="userSpaceOnUse">
      <stop offset="0" stop-color="#111827"/>
      <stop offset="0.52" stop-color="#0F172A"/>
      <stop offset="1" stop-color="#020617"/>
    </linearGradient>
    <linearGradient id="accent" x1="107" y1="140" x2="418" y2="384" gradientUnits="userSpaceOnUse">
      <stop offset="0" stop-color="#67E8F9"/>
      <stop offset="0.52" stop-color="#38BDF8"/>
      <stop offset="1" stop-color="#22C55E"/>
    </linearGradient>
    <filter id="softShadow" x="-20%" y="-20%" width="140%" height="140%">
      <feDropShadow dx="0" dy="18" stdDeviation="18" flood-color="#020617" flood-opacity="0.25"/>
    </filter>
  </defs>
  <rect x="40" y="40" width="432" height="432" rx="104" fill="url(#bg)" filter="url(#softShadow)"/>
  <path d="M99 142H413" stroke="#334155" stroke-width="2" stroke-linecap="round" opacity="0.55"/>
  <circle cx="124" cy="110" r="8" fill="#22D3EE" opacity="0.85"/>
  <circle cx="152" cy="110" r="8" fill="#38BDF8" opacity="0.65"/>
  <circle cx="180" cy="110" r="8" fill="#22C55E" opacity="0.65"/>
  <path d="M102 338H155M357 338H410M155 338V386M357 338V386M155 386H205M307 386H357" stroke="#38BDF8" stroke-width="8" stroke-linecap="round" opacity="0.7"/>
  <circle cx="155" cy="386" r="11" fill="#0F172A" stroke="#67E8F9" stroke-width="6"/>
  <circle cx="357" cy="386" r="11" fill="#0F172A" stroke="#67E8F9" stroke-width="6"/>
  <circle cx="102" cy="338" r="9" fill="#22C55E"/>
  <circle cx="410" cy="338" r="9" fill="#22C55E"/>
  <text x="256" y="299" text-anchor="middle" font-family="Inter, Noto Sans, Arial, sans-serif" font-weight="800" font-size="150" letter-spacing="-9" fill="url(#accent)">NE</text>
  <path d="M111 183L139 209L111 235" stroke="#E2E8F0" stroke-width="16" stroke-linecap="round" stroke-linejoin="round" opacity="0.92"/>
  <path d="M288 333H350" stroke="#E2E8F0" stroke-width="14" stroke-linecap="round" opacity="0.9"/>
  <path d="M367 333H392" stroke="#22C55E" stroke-width="14" stroke-linecap="round" opacity="0.95"/>
</svg>
